<svg viewBox="0 0 273 273" xmlns="http://www.w3.org/2000/svg" version="1.1"><path d="m102 0h16v16h-16z" fill="#514421"/><path d="m119 0h16v16h-16z" fill="#514421"/><path d="m136 0h16v16h-16z" fill="#514421"/><path d="m153 0h16v16h-16z" fill="#514421"/><path d="m102 17h16v16h-16z" fill="#514421"/><path d="m119 17h16v16h-16z" fill="#514421"/><path d="m136 17h16v16h-16z" fill="#514421"/><path d="m153 17h16v16h-16z" fill="#514421"/><path d="m102 34h16v16h-16z" fill="#514421"/><path d="m119 34h16v16h-16z" fill="#514421"/><path d="m136 34h16v16h-16z" fill="#514421"/><path d="m153 34h16v16h-16z" fill="#514421"/><path d="m102 51h16v16h-16z" fill="#514421"/><path d="m119 51h16v16h-16z" fill="#514421"/><path d="m136 51h16v16h-16z" fill="#514421"/><path d="m153 51h16v16h-16z" fill="#514421"/><path d="m102 68h16v16h-16z" fill="#514421"/><path d="m119 68h16v16h-16z" fill="#514421"/><path d="m136 68h16v16h-16z" fill="#514421"/><path d="m153 68h16v16h-16z" fill="#514421"/><path d="m102 85h16v16h-16z" fill="#514421"/><path d="m119 85h16v16h-16z" fill="#514421"/><path d="m136 85h16v16h-16z" fill="#514421"/><path d="m153 85h16v16h-16z" fill="#514421"/><path d="m102 102h16v16h-16z" fill="#514421"/><path d="m119 102h16v16h-16z" fill="#514421"/><path d="m136 102h16v16h-16z" fill="#514421"/><path d="m153 102h16v16h-16z" fill="#514421"/><path d="m51 119h16v16h-16z" fill="#514421"/><path d="m68 119h16v16h-16z" fill="#514421"/><path d="m85 119h16v16h-16z" fill="#514421"/><path d="m102 119h16v16h-16z" fill="#514421"/><path d="m119 119h16v16h-16z" fill="#514421"/><path d="m136 119h16v16h-16z" fill="#514421"/><path d="m153 119h16v16h-16z" fill="#514421"/><path d="m170 119h16v16h-16z" fill="#514421"/><path d="m187 119h16v16h-16z" fill="#514421"/><path d="m204 119h16v16h-16z" fill="#514421"/><path d="m68 136h16v16h-16z" fill="#514421"/><path d="m85 136h16v16h-16z" fill="#514421"/><path d="m102 136h16v16h-16z" fill="#514421"/><path d="m119 136h16v16h-16z" fill="#514421"/><path d="m136 136h16v16h-16z" fill="#514421"/><path d="m153 136h16v16h-16z" fill="#514421"/><path d="m170 136h16v16h-16z" fill="#514421"/><path d="m187 136h16v16h-16z" fill="#514421"/><path d="m85 153h16v16h-16z" fill="#514421"/><path d="m102 153h16v16h-16z" fill="#514421"/><path d="m119 153h16v16h-16z" fill="#514421"/><path d="m136 153h16v16h-16z" fill="#514421"/><path d="m153 153h16v16h-16z" fill="#514421"/><path d="m170 153h16v16h-16z" fill="#514421"/><path d="m102 170h16v16h-16z" fill="#514421"/><path d="m119 170h16v16h-16z" fill="#514421"/><path d="m136 170h16v16h-16z" fill="#514421"/><path d="m153 170h16v16h-16z" fill="#514421"/><path d="m0 187h16v16h-16z" fill="#514421"/><path d="m17 187h16v16h-16z" fill="#514421"/><path d="m119 187h16v16h-16z" fill="#514421"/><path d="m136 187h16v16h-16z" fill="#514421"/><path d="m238 187h16v16h-16z" fill="#514421"/><path d="m255 187h16v16h-16z" fill="#514421"/><path d="m0 204h16v16h-16z" fill="#514421"/><path d="m17 204h16v16h-16z" fill="#514421"/><path d="m238 204h16v16h-16z" fill="#514421"/><path d="m255 204h16v16h-16z" fill="#514421"/><path d="m0 221h16v16h-16z" fill="#514421"/><path d="m17 221h16v16h-16z" fill="#514421"/><path d="m238 221h16v16h-16z" fill="#514421"/><path d="m255 221h16v16h-16z" fill="#514421"/><path d="m0 238h16v16h-16z" fill="#514421"/><path d="m17 238h16v16h-16z" fill="#514421"/><path d="m34 238h16v16h-16z" fill="#514421"/><path d="m51 238h16v16h-16z" fill="#514421"/><path d="m68 238h16v16h-16z" fill="#514421"/><path d="m85 238h16v16h-16z" fill="#514421"/><path d="m102 238h16v16h-16z" fill="#514421"/><path d="m119 238h16v16h-16z" fill="#514421"/><path d="m136 238h16v16h-16z" fill="#514421"/><path d="m153 238h16v16h-16z" fill="#514421"/><path d="m170 238h16v16h-16z" fill="#514421"/><path d="m187 238h16v16h-16z" fill="#514421"/><path d="m204 238h16v16h-16z" fill="#514421"/><path d="m221 238h16v16h-16z" fill="#514421"/><path d="m238 238h16v16h-16z" fill="#514421"/><path d="m255 238h16v16h-16z" fill="#514421"/><path d="m17 255h16v16h-16z" fill="#514421"/><path d="m34 255h16v16h-16z" fill="#514421"/><path d="m51 255h16v16h-16z" fill="#514421"/><path d="m68 255h16v16h-16z" fill="#514421"/><path d="m85 255h16v16h-16z" fill="#514421"/><path d="m102 255h16v16h-16z" fill="#514421"/><path d="m119 255h16v16h-16z" fill="#514421"/><path d="m136 255h16v16h-16z" fill="#514421"/><path d="m153 255h16v16h-16z" fill="#514421"/><path d="m170 255h16v16h-16z" fill="#514421"/><path d="m187 255h16v16h-16z" fill="#514421"/><path d="m204 255h16v16h-16z" fill="#514421"/><path d="m221 255h16v16h-16z" fill="#514421"/><path d="m238 255h16v16h-16z" fill="#514421"/></svg>