<svg viewBox="0 0 256 256" xmlns="http://www.w3.org/2000/svg" version="1.1"><path d="m0 0h16v16h-16z" fill="#8e8128"></path><path d="m16 0h16v16h-16z" fill="#8e8128"></path><path d="m32 0h16v16h-16z" fill="#5484aa"></path><path d="m48 0h16v16h-16z" fill="#5484aa"></path><path d="m64 0h16v16h-16z" fill="#5484aa"></path><path d="m80 0h16v16h-16z" fill="#5484aa"></path><path d="m96 0h16v16h-16z" fill="#5484aa"></path><path d="m112 0h16v16h-16z" fill="#5484aa"></path><path d="m128 0h16v16h-16z" fill="#5484aa"></path><path d="m144 0h16v16h-16z" fill="#5484aa"></path><path d="m160 0h16v16h-16z" fill="#5484aa"></path><path d="m176 0h16v16h-16z" fill="#5484aa"></path><path d="m192 0h16v16h-16z" fill="#5484aa"></path><path d="m208 0h16v16h-16z" fill="#5484aa"></path><path d="m224 0h16v16h-16z" fill="#8e8128"></path><path d="m240 0h16v16h-16z" fill="#8e8128"></path><path d="m0 16h16v16h-16z" fill="#b5a630"></path><path d="m16 16h16v16h-16z" fill="#b5a630"></path><path d="m32 16h16v16h-16z" fill="#3a6081"></path><path d="m48 16h16v16h-16z" fill="#3a6081"></path><path d="m64 16h16v16h-16z" fill="#3a6081"></path><path d="m80 16h16v16h-16z" fill="#3a6081"></path><path d="m96 16h16v16h-16z" fill="#3a6081"></path><path d="m112 16h16v16h-16z" fill="#3a6081"></path><path d="m128 16h16v16h-16z" fill="#3a6081"></path><path d="m144 16h16v16h-16z" fill="#3a6081"></path><path d="m160 16h16v16h-16z" fill="#3a6081"></path><path d="m176 16h16v16h-16z" fill="#3a6081"></path><path d="m192 16h16v16h-16z" fill="#3a6081"></path><path d="m208 16h16v16h-16z" fill="#3a6081"></path><path d="m224 16h16v16h-16z" fill="#b5a630"></path><path d="m240 16h16v16h-16z" fill="#b5a630"></path><path d="m0 32h16v16h-16z" fill="#d1be87"></path><path d="m16 32h16v16h-16z" fill="#d1be87"></path><path d="m32 32h16v16h-16z" fill="#3a6081"></path><path d="m48 32h16v16h-16z" fill="#61b1b5"></path><path d="m64 32h16v16h-16z" fill="#61b1b5"></path><path d="m80 32h16v16h-16z" fill="#61b1b5"></path><path d="m96 32h16v16h-16z" fill="#61b1b5"></path><path d="m112 32h16v16h-16z" fill="#61b1b5"></path><path d="m128 32h16v16h-16z" fill="#61b1b5"></path><path d="m144 32h16v16h-16z" fill="#61b1b5"></path><path d="m160 32h16v16h-16z" fill="#61b1b5"></path><path d="m176 32h16v16h-16z" fill="#61b1b5"></path><path d="m192 32h16v16h-16z" fill="#61b1b5"></path><path d="m208 32h16v16h-16z" fill="#61b1b5"></path><path d="m224 32h16v16h-16z" fill="#d1be87"></path><path d="m240 32h16v16h-16z" fill="#d1be87"></path><path d="m0 48h16v16h-16z" fill="#d1be87"></path><path d="m16 48h16v16h-16z" fill="#d8c159"></path><path d="m32 48h16v16h-16z" fill="#3a6081"></path><path d="m48 48h16v16h-16z" fill="#5484aa"></path><path d="m64 48h16v16h-16z" fill="#5484aa"></path><path d="m80 48h16v16h-16z" fill="#5484aa"></path><path d="m96 48h16v16h-16z" fill="#5484aa"></path><path d="m112 48h16v16h-16z" fill="#5484aa"></path><path d="m128 48h16v16h-16z" fill="#5484aa"></path><path d="m144 48h16v16h-16z" fill="#5484aa"></path><path d="m160 48h16v16h-16z" fill="#5484aa"></path><path d="m176 48h16v16h-16z" fill="#5484aa"></path><path d="m192 48h16v16h-16z" fill="#5484aa"></path><path d="m208 48h16v16h-16z" fill="#5484aa"></path><path d="m224 48h16v16h-16z" fill="#d1be87"></path><path d="m240 48h16v16h-16z" fill="#d8c159"></path><path d="m0 64h16v16h-16z" fill="#d8c159"></path><path d="m16 64h16v16h-16z" fill="#d8c159"></path><path d="m32 64h16v16h-16z" fill="#1f4959"></path><path d="m48 64h16v16h-16z" fill="#1f4959"></path><path d="m64 64h16v16h-16z" fill="#3a6081"></path><path d="m80 64h16v16h-16z" fill="#1f4959"></path><path d="m96 64h16v16h-16z" fill="#3a6081"></path><path d="m112 64h16v16h-16z" fill="#1f4959"></path><path d="m128 64h16v16h-16z" fill="#3a6081"></path><path d="m144 64h16v16h-16z" fill="#3a6081"></path><path d="m160 64h16v16h-16z" fill="#3a6081"></path><path d="m176 64h16v16h-16z" fill="#3a6081"></path><path d="m192 64h16v16h-16z" fill="#3a6081"></path><path d="m208 64h16v16h-16z" fill="#3a6081"></path><path d="m224 64h16v16h-16z" fill="#d8c159"></path><path d="m240 64h16v16h-16z" fill="#d8c159"></path><path d="m0 80h16v16h-16z" fill="#b5a630"></path><path d="m16 80h16v16h-16z" fill="#b5a630"></path><path d="m32 80h16v16h-16z" fill="#3a6081"></path><path d="m48 80h16v16h-16z" fill="#5484aa"></path><path d="m64 80h16v16h-16z" fill="#5484aa"></path><path d="m80 80h16v16h-16z" fill="#5484aa"></path><path d="m96 80h16v16h-16z" fill="#5484aa"></path><path d="m112 80h16v16h-16z" fill="#5484aa"></path><path d="m128 80h16v16h-16z" fill="#5484aa"></path><path d="m144 80h16v16h-16z" fill="#5484aa"></path><path d="m160 80h16v16h-16z" fill="#5484aa"></path><path d="m176 80h16v16h-16z" fill="#5484aa"></path><path d="m192 80h16v16h-16z" fill="#5484aa"></path><path d="m208 80h16v16h-16z" fill="#5484aa"></path><path d="m224 80h16v16h-16z" fill="#b5a630"></path><path d="m240 80h16v16h-16z" fill="#b5a630"></path><path d="m0 96h16v16h-16z" fill="#8e8128"></path><path d="m16 96h16v16h-16z" fill="#8e8128"></path><path d="m32 96h16v16h-16z" fill="#3a6081"></path><path d="m48 96h16v16h-16z" fill="#3a6081"></path><path d="m64 96h16v16h-16z" fill="#3a6081"></path><path d="m80 96h16v16h-16z" fill="#3a6081"></path><path d="m96 96h16v16h-16z" fill="#d8c159"></path><path d="m112 96h16v16h-16z" fill="#b5a630"></path><path d="m128 96h16v16h-16z" fill="#b5a630"></path><path d="m144 96h16v16h-16z" fill="#b5a630"></path><path d="m160 96h16v16h-16z" fill="#3a6081"></path><path d="m176 96h16v16h-16z" fill="#3a6081"></path><path d="m192 96h16v16h-16z" fill="#3a6081"></path><path d="m208 96h16v16h-16z" fill="#3a6081"></path><path d="m224 96h16v16h-16z" fill="#8e8128"></path><path d="m240 96h16v16h-16z" fill="#8e8128"></path><path d="m0 112h16v16h-16z" fill="#8e8128"></path><path d="m16 112h16v16h-16z" fill="#8e8128"></path><path d="m32 112h16v16h-16z" fill="#8e8128"></path><path d="m48 112h16v16h-16z" fill="#b5a630"></path><path d="m64 112h16v16h-16z" fill="#b5a630"></path><path d="m80 112h16v16h-16z" fill="#b5a630"></path><path d="m96 112h16v16h-16z" fill="#8e8128"></path><path d="m112 112h16v16h-16z" fill="#8e8128"></path><path d="m128 112h16v16h-16z" fill="#8e8128"></path><path d="m144 112h16v16h-16z" fill="#8e8128"></path><path d="m160 112h16v16h-16z" fill="#b5a630"></path><path d="m176 112h16v16h-16z" fill="#d8c159"></path><path d="m192 112h16v16h-16z" fill="#d8c159"></path><path d="m208 112h16v16h-16z" fill="#d8c159"></path><path d="m224 112h16v16h-16z" fill="#8e8128"></path><path d="m240 112h16v16h-16z" fill="#8e8128"></path><path d="m0 128h16v16h-16z" fill="#8e8128"></path><path d="m16 128h16v16h-16z" fill="#8e8128"></path><path d="m32 128h16v16h-16z" fill="#8e8128"></path><path d="m48 128h16v16h-16z" fill="#8e8128"></path><path d="m64 128h16v16h-16z" fill="#8e8128"></path><path d="m80 128h16v16h-16z" fill="#6c4c27"></path><path d="m96 128h16v16h-16z" fill="#8e8128"></path><path d="m112 128h16v16h-16z" fill="#6c4c27"></path><path d="m128 128h16v16h-16z" fill="#6c4c27"></path><path d="m144 128h16v16h-16z" fill="#8e8128"></path><path d="m160 128h16v16h-16z" fill="#6c4c27"></path><path d="m176 128h16v16h-16z" fill="#8e8128"></path><path d="m192 128h16v16h-16z" fill="#8e8128"></path><path d="m208 128h16v16h-16z" fill="#8e8128"></path><path d="m224 128h16v16h-16z" fill="#8e8128"></path><path d="m240 128h16v16h-16z" fill="#6b6341"></path><path d="m0 144h16v16h-16z" fill="#8e8128"></path><path d="m16 144h16v16h-16z" fill="#8e8128"></path><path d="m32 144h16v16h-16z" fill="#1f4959"></path><path d="m48 144h16v16h-16z" fill="#1f4959"></path><path d="m64 144h16v16h-16z" fill="#1f4959"></path><path d="m80 144h16v16h-16z" fill="#1f4959"></path><path d="m96 144h16v16h-16z" fill="#1f4959"></path><path d="m112 144h16v16h-16z" fill="#8e8128"></path><path d="m128 144h16v16h-16z" fill="#8e8128"></path><path d="m144 144h16v16h-16z" fill="#1f4959"></path><path d="m160 144h16v16h-16z" fill="#1f4959"></path><path d="m176 144h16v16h-16z" fill="#1f4959"></path><path d="m192 144h16v16h-16z" fill="#1f4959"></path><path d="m208 144h16v16h-16z" fill="#1f4959"></path><path d="m224 144h16v16h-16z" fill="#8e8128"></path><path d="m240 144h16v16h-16z" fill="#6b6341"></path><path d="m0 160h16v16h-16z" fill="#8e8128"></path><path d="m16 160h16v16h-16z" fill="#8e8128"></path><path d="m32 160h16v16h-16z" fill="#1f4959"></path><path d="m48 160h16v16h-16z" fill="#3a6081"></path><path d="m64 160h16v16h-16z" fill="#3a6081"></path><path d="m80 160h16v16h-16z" fill="#3a6081"></path><path d="m96 160h16v16h-16z" fill="#3a6081"></path><path d="m112 160h16v16h-16z" fill="#3a6081"></path><path d="m128 160h16v16h-16z" fill="#3a6081"></path><path d="m144 160h16v16h-16z" fill="#3a6081"></path><path d="m160 160h16v16h-16z" fill="#3a6081"></path><path d="m176 160h16v16h-16z" fill="#3a6081"></path><path d="m192 160h16v16h-16z" fill="#3a6081"></path><path d="m208 160h16v16h-16z" fill="#3a6081"></path><path d="m224 160h16v16h-16z" fill="#8e8128"></path><path d="m240 160h16v16h-16z" fill="#6b6341"></path><path d="m0 176h16v16h-16z" fill="#8e8128"></path><path d="m16 176h16v16h-16z" fill="#8e8128"></path><path d="m32 176h16v16h-16z" fill="#1f4959"></path><path d="m48 176h16v16h-16z" fill="#1f4959"></path><path d="m64 176h16v16h-16z" fill="#1f4959"></path><path d="m80 176h16v16h-16z" fill="#1f4959"></path><path d="m96 176h16v16h-16z" fill="#1f4959"></path><path d="m112 176h16v16h-16z" fill="#1f4959"></path><path d="m128 176h16v16h-16z" fill="#1f4959"></path><path d="m144 176h16v16h-16z" fill="#1f4959"></path><path d="m160 176h16v16h-16z" fill="#1f4959"></path><path d="m176 176h16v16h-16z" fill="#1f4959"></path><path d="m192 176h16v16h-16z" fill="#1f4959"></path><path d="m208 176h16v16h-16z" fill="#1f4959"></path><path d="m224 176h16v16h-16z" fill="#8e8128"></path><path d="m240 176h16v16h-16z" fill="#6b6341"></path><path d="m0 192h16v16h-16z" fill="#6b6341"></path><path d="m16 192h16v16h-16z" fill="#6b6341"></path><path d="m32 192h16v16h-16z" fill="#1f4959"></path><path d="m48 192h16v16h-16z" fill="#3a6081"></path><path d="m64 192h16v16h-16z" fill="#3a6081"></path><path d="m80 192h16v16h-16z" fill="#3a6081"></path><path d="m96 192h16v16h-16z" fill="#3a6081"></path><path d="m112 192h16v16h-16z" fill="#3a6081"></path><path d="m128 192h16v16h-16z" fill="#3a6081"></path><path d="m144 192h16v16h-16z" fill="#3a6081"></path><path d="m160 192h16v16h-16z" fill="#3a6081"></path><path d="m176 192h16v16h-16z" fill="#3a6081"></path><path d="m192 192h16v16h-16z" fill="#3a6081"></path><path d="m208 192h16v16h-16z" fill="#3a6081"></path><path d="m224 192h16v16h-16z" fill="#6b6341"></path><path d="m240 192h16v16h-16z" fill="#6c4c27"></path><path d="m0 208h16v16h-16z" fill="#6b6341"></path><path d="m16 208h16v16h-16z" fill="#6b6341"></path><path d="m32 208h16v16h-16z" fill="#8e8128"></path><path d="m48 208h16v16h-16z" fill="#8e8128"></path><path d="m64 208h16v16h-16z" fill="#b5a630"></path><path d="m80 208h16v16h-16z" fill="#8e8128"></path><path d="m96 208h16v16h-16z" fill="#b5a630"></path><path d="m112 208h16v16h-16z" fill="#b5a630"></path><path d="m128 208h16v16h-16z" fill="#d8c159"></path><path d="m144 208h16v16h-16z" fill="#b5a630"></path><path d="m160 208h16v16h-16z" fill="#b5a630"></path><path d="m176 208h16v16h-16z" fill="#d8c159"></path><path d="m192 208h16v16h-16z" fill="#d8c159"></path><path d="m208 208h16v16h-16z" fill="#b5a630"></path><path d="m224 208h16v16h-16z" fill="#6b6341"></path><path d="m240 208h16v16h-16z" fill="#6c4c27"></path><path d="m0 224h16v16h-16z" fill="#6b6341"></path><path d="m16 224h16v16h-16z" fill="#6b6341"></path><path d="m32 224h16v16h-16z" fill="#6b6341"></path><path d="m48 224h16v16h-16z" fill="#6b6341"></path><path d="m64 224h16v16h-16z" fill="#6b6341"></path><path d="m80 224h16v16h-16z" fill="#6b6341"></path><path d="m96 224h16v16h-16z" fill="#6b6341"></path><path d="m112 224h16v16h-16z" fill="#6b6341"></path><path d="m128 224h16v16h-16z" fill="#6b6341"></path><path d="m144 224h16v16h-16z" fill="#6b6341"></path><path d="m160 224h16v16h-16z" fill="#6b6341"></path><path d="m176 224h16v16h-16z" fill="#6b6341"></path><path d="m192 224h16v16h-16z" fill="#6b6341"></path><path d="m208 224h16v16h-16z" fill="#6b6341"></path><path d="m224 224h16v16h-16z" fill="#6b6341"></path><path d="m240 224h16v16h-16z" fill="#6c4c27"></path><path d="m0 240h16v16h-16z" fill="#6c4c27"></path><path d="m16 240h16v16h-16z" fill="#6c4c27"></path><path d="m32 240h16v16h-16z" fill="#6c4c27"></path><path d="m48 240h16v16h-16z" fill="#6c4c27"></path><path d="m64 240h16v16h-16z" fill="#6c4c27"></path><path d="m80 240h16v16h-16z" fill="#6c4c27"></path><path d="m96 240h16v16h-16z" fill="#6c4c27"></path><path d="m112 240h16v16h-16z" fill="#6c4c27"></path><path d="m128 240h16v16h-16z" fill="#6c4c27"></path><path d="m144 240h16v16h-16z" fill="#6c4c27"></path><path d="m160 240h16v16h-16z" fill="#6c4c27"></path><path d="m176 240h16v16h-16z" fill="#6c4c27"></path><path d="m192 240h16v16h-16z" fill="#6c4c27"></path><path d="m208 240h16v16h-16z" fill="#6c4c27"></path><path d="m224 240h16v16h-16z" fill="#6c4c27"></path><path d="m240 240h16v16h-16z" fill="#6c4c27"></path></svg>