<svg viewBox="0 0 256 256" xmlns="http://www.w3.org/2000/svg" version="1.1"><path d="m96 0h16v16h-16z" fill="#89646a"></path><path d="m112 0h16v16h-16z" fill="#9f757d"></path><path d="m128 0h16v16h-16z" fill="#9f757d"></path><path d="m144 0h16v16h-16z" fill="#9f757d"></path><path d="m80 16h16v16h-16z" fill="#89646a"></path><path d="m96 16h16v16h-16z" fill="#583c3c"></path><path d="m112 16h16v16h-16z" fill="#66432e"></path><path d="m128 16h16v16h-16z" fill="#745b46"></path><path d="m144 16h16v16h-16z" fill="#745b46"></path><path d="m160 16h16v16h-16z" fill="#9f757d"></path><path d="m64 32h16v16h-16z" fill="#9f757d"></path><path d="m80 32h16v16h-16z" fill="#583c3c"></path><path d="m96 32h16v16h-16z" fill="#000000"></path><path d="m112 32h16v16h-16z" fill="#000000"></path><path d="m128 32h16v16h-16z" fill="#422926"></path><path d="m144 32h16v16h-16z" fill="#422926"></path><path d="m160 32h16v16h-16z" fill="#66432e"></path><path d="m176 32h16v16h-16z" fill="#9f757d"></path><path d="m64 48h16v16h-16z" fill="#9f757d"></path><path d="m80 48h16v16h-16z" fill="#000000"></path><path d="m96 48h16v16h-16z" fill="#000000"></path><path d="m112 48h16v16h-16z" fill="#422926"></path><path d="m128 48h16v16h-16z" fill="#59251f"></path><path d="m144 48h16v16h-16z" fill="#583c3c"></path><path d="m160 48h16v16h-16z" fill="#422926"></path><path d="m176 48h16v16h-16z" fill="#89646a"></path><path d="m48 64h16v16h-16z" fill="#784838"></path><path d="m64 64h16v16h-16z" fill="#784838"></path><path d="m80 64h16v16h-16z" fill="#9f757d"></path><path d="m96 64h16v16h-16z" fill="#000000"></path><path d="m112 64h16v16h-16z" fill="#000000"></path><path d="m128 64h16v16h-16z" fill="#422926"></path><path d="m144 64h16v16h-16z" fill="#59251f"></path><path d="m160 64h16v16h-16z" fill="#89646a"></path><path d="m176 64h16v16h-16z" fill="#784838"></path><path d="m192 64h16v16h-16z" fill="#422926"></path><path d="m32 80h16v16h-16z" fill="#784838"></path><path d="m48 80h16v16h-16z" fill="#745b46"></path><path d="m64 80h16v16h-16z" fill="#66432e"></path><path d="m80 80h16v16h-16z" fill="#784838"></path><path d="m96 80h16v16h-16z" fill="#9f757d"></path><path d="m112 80h16v16h-16z" fill="#9f757d"></path><path d="m128 80h16v16h-16z" fill="#89646a"></path><path d="m144 80h16v16h-16z" fill="#89646a"></path><path d="m160 80h16v16h-16z" fill="#784838"></path><path d="m176 80h16v16h-16z" fill="#583c3c"></path><path d="m192 80h16v16h-16z" fill="#422926"></path><path d="m208 80h16v16h-16z" fill="#583c3c"></path><path d="m16 96h16v16h-16z" fill="#784838"></path><path d="m32 96h16v16h-16z" fill="#745b46"></path><path d="m48 96h16v16h-16z" fill="#89646a"></path><path d="m64 96h16v16h-16z" fill="#745b46"></path><path d="m80 96h16v16h-16z" fill="#66432e"></path><path d="m96 96h16v16h-16z" fill="#784838"></path><path d="m112 96h16v16h-16z" fill="#784838"></path><path d="m128 96h16v16h-16z" fill="#784838"></path><path d="m144 96h16v16h-16z" fill="#784838"></path><path d="m160 96h16v16h-16z" fill="#583c3c"></path><path d="m176 96h16v16h-16z" fill="#422926"></path><path d="m192 96h16v16h-16z" fill="#422926"></path><path d="m208 96h16v16h-16z" fill="#422926"></path><path d="m224 96h16v16h-16z" fill="#583c3c"></path><path d="m16 112h16v16h-16z" fill="#784838"></path><path d="m32 112h16v16h-16z" fill="#89646a"></path><path d="m48 112h16v16h-16z" fill="#9f757d"></path><path d="m64 112h16v16h-16z" fill="#89646a"></path><path d="m80 112h16v16h-16z" fill="#745b46"></path><path d="m96 112h16v16h-16z" fill="#66432e"></path><path d="m112 112h16v16h-16z" fill="#66432e"></path><path d="m128 112h16v16h-16z" fill="#583c3c"></path><path d="m144 112h16v16h-16z" fill="#583c3c"></path><path d="m160 112h16v16h-16z" fill="#422926"></path><path d="m176 112h16v16h-16z" fill="#66432e"></path><path d="m192 112h16v16h-16z" fill="#583c3c"></path><path d="m208 112h16v16h-16z" fill="#422926"></path><path d="m224 112h16v16h-16z" fill="#583c3c"></path><path d="m16 128h16v16h-16z" fill="#784838"></path><path d="m32 128h16v16h-16z" fill="#89646a"></path><path d="m48 128h16v16h-16z" fill="#9f757d"></path><path d="m64 128h16v16h-16z" fill="#9f757d"></path><path d="m80 128h16v16h-16z" fill="#9f757d"></path><path d="m96 128h16v16h-16z" fill="#89646a"></path><path d="m112 128h16v16h-16z" fill="#745b46"></path><path d="m128 128h16v16h-16z" fill="#784838"></path><path d="m144 128h16v16h-16z" fill="#66432e"></path><path d="m160 128h16v16h-16z" fill="#66432e"></path><path d="m176 128h16v16h-16z" fill="#66432e"></path><path d="m192 128h16v16h-16z" fill="#583c3c"></path><path d="m208 128h16v16h-16z" fill="#422926"></path><path d="m224 128h16v16h-16z" fill="#583c3c"></path><path d="m16 144h16v16h-16z" fill="#784838"></path><path d="m32 144h16v16h-16z" fill="#89646a"></path><path d="m48 144h16v16h-16z" fill="#89646a"></path><path d="m64 144h16v16h-16z" fill="#9f757d"></path><path d="m80 144h16v16h-16z" fill="#9f757d"></path><path d="m96 144h16v16h-16z" fill="#89646a"></path><path d="m112 144h16v16h-16z" fill="#745b46"></path><path d="m128 144h16v16h-16z" fill="#745b46"></path><path d="m144 144h16v16h-16z" fill="#784838"></path><path d="m160 144h16v16h-16z" fill="#66432e"></path><path d="m176 144h16v16h-16z" fill="#66432e"></path><path d="m192 144h16v16h-16z" fill="#583c3c"></path><path d="m208 144h16v16h-16z" fill="#422926"></path><path d="m224 144h16v16h-16z" fill="#583c3c"></path><path d="m16 160h16v16h-16z" fill="#784838"></path><path d="m32 160h16v16h-16z" fill="#745b46"></path><path d="m48 160h16v16h-16z" fill="#89646a"></path><path d="m64 160h16v16h-16z" fill="#89646a"></path><path d="m80 160h16v16h-16z" fill="#89646a"></path><path d="m96 160h16v16h-16z" fill="#89646a"></path><path d="m112 160h16v16h-16z" fill="#745b46"></path><path d="m128 160h16v16h-16z" fill="#745b46"></path><path d="m144 160h16v16h-16z" fill="#784838"></path><path d="m160 160h16v16h-16z" fill="#66432e"></path><path d="m176 160h16v16h-16z" fill="#66432e"></path><path d="m192 160h16v16h-16z" fill="#583c3c"></path><path d="m208 160h16v16h-16z" fill="#583c3c"></path><path d="m224 160h16v16h-16z" fill="#583c3c"></path><path d="m32 176h16v16h-16z" fill="#784838"></path><path d="m48 176h16v16h-16z" fill="#745b46"></path><path d="m64 176h16v16h-16z" fill="#89646a"></path><path d="m80 176h16v16h-16z" fill="#89646a"></path><path d="m96 176h16v16h-16z" fill="#745b46"></path><path d="m112 176h16v16h-16z" fill="#745b46"></path><path d="m128 176h16v16h-16z" fill="#745b46"></path><path d="m144 176h16v16h-16z" fill="#784838"></path><path d="m160 176h16v16h-16z" fill="#66432e"></path><path d="m176 176h16v16h-16z" fill="#66432e"></path><path d="m192 176h16v16h-16z" fill="#583c3c"></path><path d="m208 176h16v16h-16z" fill="#422926"></path><path d="m32 192h16v16h-16z" fill="#66432e"></path><path d="m48 192h16v16h-16z" fill="#784838"></path><path d="m64 192h16v16h-16z" fill="#745b46"></path><path d="m80 192h16v16h-16z" fill="#745b46"></path><path d="m96 192h16v16h-16z" fill="#745b46"></path><path d="m112 192h16v16h-16z" fill="#745b46"></path><path d="m128 192h16v16h-16z" fill="#784838"></path><path d="m144 192h16v16h-16z" fill="#66432e"></path><path d="m160 192h16v16h-16z" fill="#66432e"></path><path d="m176 192h16v16h-16z" fill="#583c3c"></path><path d="m192 192h16v16h-16z" fill="#422926"></path><path d="m208 192h16v16h-16z" fill="#422926"></path><path d="m48 208h16v16h-16z" fill="#66432e"></path><path d="m64 208h16v16h-16z" fill="#784838"></path><path d="m80 208h16v16h-16z" fill="#784838"></path><path d="m96 208h16v16h-16z" fill="#784838"></path><path d="m112 208h16v16h-16z" fill="#784838"></path><path d="m128 208h16v16h-16z" fill="#66432e"></path><path d="m144 208h16v16h-16z" fill="#66432e"></path><path d="m160 208h16v16h-16z" fill="#583c3c"></path><path d="m176 208h16v16h-16z" fill="#583c3c"></path><path d="m192 208h16v16h-16z" fill="#422926"></path><path d="m64 224h16v16h-16z" fill="#422926"></path><path d="m80 224h16v16h-16z" fill="#583c3c"></path><path d="m96 224h16v16h-16z" fill="#66432e"></path><path d="m112 224h16v16h-16z" fill="#66432e"></path><path d="m128 224h16v16h-16z" fill="#66432e"></path><path d="m144 224h16v16h-16z" fill="#583c3c"></path><path d="m160 224h16v16h-16z" fill="#583c3c"></path><path d="m176 224h16v16h-16z" fill="#422926"></path><path d="m80 240h16v16h-16z" fill="#422926"></path><path d="m96 240h16v16h-16z" fill="#422926"></path><path d="m112 240h16v16h-16z" fill="#583c3c"></path><path d="m128 240h16v16h-16z" fill="#583c3c"></path><path d="m144 240h16v16h-16z" fill="#583c3c"></path><path d="m160 240h16v16h-16z" fill="#422926"></path></svg>