<svg viewBox="0 0 188 188" xmlns="http://www.w3.org/2000/svg" version="1.1"><path d="m17 34h16v16h-16z" fill="#514421"/><path d="m34 34h16v16h-16z" fill="#514421"/><path d="m51 34h16v16h-16z" fill="#514421"/><path d="m68 34h16v16h-16z" fill="#514421"/><path d="m17 51h16v16h-16z" fill="#514421"/><path d="m34 51h16v16h-16z" fill="#514421"/><path d="m17 68h16v16h-16z" fill="#514421"/><path d="m34 68h16v16h-16z" fill="#514421"/><path d="m17 85h16v16h-16z" fill="#514421"/><path d="m34 85h16v16h-16z" fill="#514421"/><path d="m51 85h16v16h-16z" fill="#514421"/><path d="m68 85h16v16h-16z" fill="#514421"/><path d="m51 102h16v16h-16z" fill="#514421"/><path d="m68 102h16v16h-16z" fill="#514421"/><path d="m51 119h16v16h-16z" fill="#514421"/><path d="m68 119h16v16h-16z" fill="#514421"/><path d="m17 136h16v16h-16z" fill="#514421"/><path d="m34 136h16v16h-16z" fill="#514421"/><path d="m51 136h16v16h-16z" fill="#514421"/><path d="m68 136h16v16h-16z" fill="#514421"/><circle cx="110" cy="42" r="8" fill="#514421"/><circle cx="127" cy="42" r="8" fill="#514421"/><circle cx="144" cy="42" r="8" fill="#514421"/><circle cx="110" cy="59" r="8" fill="#514421"/><circle cx="127" cy="59" r="8" fill="#514421"/><circle cx="161" cy="59" r="8" fill="#514421"/><circle cx="110" cy="76" r="8" fill="#514421"/><circle cx="127" cy="76" r="8" fill="#514421"/><circle cx="161" cy="76" r="8" fill="#514421"/><circle cx="110" cy="93" r="8" fill="#514421"/><circle cx="127" cy="93" r="8" fill="#514421"/><circle cx="161" cy="93" r="8" fill="#514421"/><circle cx="110" cy="110" r="8" fill="#514421"/><circle cx="127" cy="110" r="8" fill="#514421"/><circle cx="161" cy="110" r="8" fill="#514421"/><circle cx="110" cy="127" r="8" fill="#514421"/><circle cx="127" cy="127" r="8" fill="#514421"/><circle cx="161" cy="127" r="8" fill="#514421"/><circle cx="110" cy="144" r="8" fill="#514421"/><circle cx="127" cy="144" r="8" fill="#514421"/><circle cx="144" cy="144" r="8" fill="#514421"/></svg>