<svg viewBox="0 0 783 154" xmlns="http://www.w3.org/2000/svg" version="1.1"><path d="m17 17h16v16h-16z" fill="#514421"/><path d="m34 17h16v16h-16z" fill="#514421"/><path d="m51 17h16v16h-16z" fill="#514421"/><path d="m68 17h16v16h-16z" fill="#514421"/><path d="m238 17h16v16h-16z" fill="#514421"/><path d="m408 17h16v16h-16z" fill="#514421"/><path d="m17 34h16v16h-16z" fill="#514421"/><path d="m34 34h16v16h-16z" fill="#514421"/><path d="m238 34h16v16h-16z" fill="#514421"/><path d="m340 34h16v16h-16z" fill="#514421"/><path d="m408 34h16v16h-16z" fill="#514421"/><path d="m17 51h16v16h-16z" fill="#514421"/><path d="m34 51h16v16h-16z" fill="#514421"/><path d="m170 51h16v16h-16z" fill="#514421"/><path d="m187 51h16v16h-16z" fill="#514421"/><path d="m204 51h16v16h-16z" fill="#514421"/><path d="m238 51h16v16h-16z" fill="#514421"/><path d="m272 51h16v16h-16z" fill="#514421"/><path d="m289 51h16v16h-16z" fill="#514421"/><path d="m306 51h16v16h-16z" fill="#514421"/><path d="m340 51h16v16h-16z" fill="#514421"/><path d="m408 51h16v16h-16z" fill="#514421"/><path d="m442 51h16v16h-16z" fill="#514421"/><path d="m459 51h16v16h-16z" fill="#514421"/><path d="m476 51h16v16h-16z" fill="#514421"/><path d="m17 68h16v16h-16z" fill="#514421"/><path d="m34 68h16v16h-16z" fill="#514421"/><path d="m51 68h16v16h-16z" fill="#514421"/><path d="m68 68h16v16h-16z" fill="#514421"/><path d="m102 68h16v16h-16z" fill="#514421"/><path d="m119 68h16v16h-16z" fill="#514421"/><path d="m136 68h16v16h-16z" fill="#514421"/><path d="m204 68h16v16h-16z" fill="#514421"/><path d="m238 68h16v16h-16z" fill="#514421"/><path d="m306 68h16v16h-16z" fill="#514421"/><path d="m340 68h16v16h-16z" fill="#514421"/><path d="m357 68h16v16h-16z" fill="#514421"/><path d="m374 68h16v16h-16z" fill="#514421"/><path d="m408 68h16v16h-16z" fill="#514421"/><path d="m442 68h16v16h-16z" fill="#514421"/><path d="m476 68h16v16h-16z" fill="#514421"/><path d="m51 85h16v16h-16z" fill="#514421"/><path d="m68 85h16v16h-16z" fill="#514421"/><path d="m102 85h16v16h-16z" fill="#514421"/><path d="m170 85h16v16h-16z" fill="#514421"/><path d="m187 85h16v16h-16z" fill="#514421"/><path d="m204 85h16v16h-16z" fill="#514421"/><path d="m238 85h16v16h-16z" fill="#514421"/><path d="m272 85h16v16h-16z" fill="#514421"/><path d="m289 85h16v16h-16z" fill="#514421"/><path d="m306 85h16v16h-16z" fill="#514421"/><path d="m340 85h16v16h-16z" fill="#514421"/><path d="m374 85h16v16h-16z" fill="#514421"/><path d="m408 85h16v16h-16z" fill="#514421"/><path d="m442 85h16v16h-16z" fill="#514421"/><path d="m459 85h16v16h-16z" fill="#514421"/><path d="m476 85h16v16h-16z" fill="#514421"/><path d="m51 102h16v16h-16z" fill="#514421"/><path d="m68 102h16v16h-16z" fill="#514421"/><path d="m102 102h16v16h-16z" fill="#514421"/><path d="m170 102h16v16h-16z" fill="#514421"/><path d="m204 102h16v16h-16z" fill="#514421"/><path d="m238 102h16v16h-16z" fill="#514421"/><path d="m272 102h16v16h-16z" fill="#514421"/><path d="m306 102h16v16h-16z" fill="#514421"/><path d="m340 102h16v16h-16z" fill="#514421"/><path d="m374 102h16v16h-16z" fill="#514421"/><path d="m408 102h16v16h-16z" fill="#514421"/><path d="m442 102h16v16h-16z" fill="#514421"/><path d="m17 119h16v16h-16z" fill="#514421"/><path d="m34 119h16v16h-16z" fill="#514421"/><path d="m51 119h16v16h-16z" fill="#514421"/><path d="m68 119h16v16h-16z" fill="#514421"/><path d="m102 119h16v16h-16z" fill="#514421"/><path d="m119 119h16v16h-16z" fill="#514421"/><path d="m136 119h16v16h-16z" fill="#514421"/><path d="m170 119h16v16h-16z" fill="#514421"/><path d="m187 119h16v16h-16z" fill="#514421"/><path d="m204 119h16v16h-16z" fill="#514421"/><path d="m238 119h16v16h-16z" fill="#514421"/><path d="m272 119h16v16h-16z" fill="#514421"/><path d="m289 119h16v16h-16z" fill="#514421"/><path d="m306 119h16v16h-16z" fill="#514421"/><path d="m340 119h16v16h-16z" fill="#514421"/><path d="m357 119h16v16h-16z" fill="#514421"/><path d="m374 119h16v16h-16z" fill="#514421"/><path d="m408 119h16v16h-16z" fill="#514421"/><path d="m442 119h16v16h-16z" fill="#514421"/><path d="m459 119h16v16h-16z" fill="#514421"/><path d="m476 119h16v16h-16z" fill="#514421"/><circle cx="518" cy="25" r="8" fill="#514421"/><circle cx="535" cy="25" r="8" fill="#514421"/><circle cx="552" cy="25" r="8" fill="#514421"/><circle cx="518" cy="42" r="8" fill="#514421"/><circle cx="535" cy="42" r="8" fill="#514421"/><circle cx="569" cy="42" r="8" fill="#514421"/><circle cx="671" cy="42" r="8" fill="#514421"/><circle cx="518" cy="59" r="8" fill="#514421"/><circle cx="535" cy="59" r="8" fill="#514421"/><circle cx="569" cy="59" r="8" fill="#514421"/><circle cx="654" cy="59" r="8" fill="#514421"/><circle cx="671" cy="59" r="8" fill="#514421"/><circle cx="688" cy="59" r="8" fill="#514421"/><circle cx="722" cy="59" r="8" fill="#514421"/><circle cx="739" cy="59" r="8" fill="#514421"/><circle cx="756" cy="59" r="8" fill="#514421"/><circle cx="518" cy="76" r="8" fill="#514421"/><circle cx="535" cy="76" r="8" fill="#514421"/><circle cx="569" cy="76" r="8" fill="#514421"/><circle cx="603" cy="76" r="8" fill="#514421"/><circle cx="620" cy="76" r="8" fill="#514421"/><circle cx="637" cy="76" r="8" fill="#514421"/><circle cx="671" cy="76" r="8" fill="#514421"/><circle cx="722" cy="76" r="8" fill="#514421"/><circle cx="518" cy="93" r="8" fill="#514421"/><circle cx="535" cy="93" r="8" fill="#514421"/><circle cx="569" cy="93" r="8" fill="#514421"/><circle cx="603" cy="93" r="8" fill="#514421"/><circle cx="637" cy="93" r="8" fill="#514421"/><circle cx="671" cy="93" r="8" fill="#514421"/><circle cx="722" cy="93" r="8" fill="#514421"/><circle cx="739" cy="93" r="8" fill="#514421"/><circle cx="756" cy="93" r="8" fill="#514421"/><circle cx="518" cy="110" r="8" fill="#514421"/><circle cx="535" cy="110" r="8" fill="#514421"/><circle cx="569" cy="110" r="8" fill="#514421"/><circle cx="603" cy="110" r="8" fill="#514421"/><circle cx="637" cy="110" r="8" fill="#514421"/><circle cx="671" cy="110" r="8" fill="#514421"/><circle cx="756" cy="110" r="8" fill="#514421"/><circle cx="518" cy="127" r="8" fill="#514421"/><circle cx="535" cy="127" r="8" fill="#514421"/><circle cx="552" cy="127" r="8" fill="#514421"/><circle cx="603" cy="127" r="8" fill="#514421"/><circle cx="620" cy="127" r="8" fill="#514421"/><circle cx="637" cy="127" r="8" fill="#514421"/><circle cx="671" cy="127" r="8" fill="#514421"/><circle cx="688" cy="127" r="8" fill="#514421"/><circle cx="722" cy="127" r="8" fill="#514421"/><circle cx="739" cy="127" r="8" fill="#514421"/><circle cx="756" cy="127" r="8" fill="#514421"/></svg>